<?xml version="1.0" encoding="utf-8"?>

<!-- License Agreement at http://iconmonstr.com/license/ -->

<!DOCTYPE svg PUBLIC "-//W3C//DTD SVG 1.1//EN" "http://www.w3.org/Graphics/SVG/1.1/DTD/svg11.dtd">
<svg version="1.1" xmlns="http://www.w3.org/2000/svg" xmlns:xlink="http://www.w3.org/1999/xlink" x="0px" y="0px"
	 width="512px" height="512px" viewBox="0 0 512 512" enable-background="new 0 0 512 512" xml:space="preserve">
<path id="shuffle-2-icon" d="M256,50C142.229,50,50,142.229,50,256s92.229,206,206,206s206-92.229,206-206S369.771,50,256,50z
	 M138.792,183.775H158.8c25.578,0,50.385,10.521,68.283,29.737c-0.777,1.148-14.946,23.758-14.946,23.758
	c-12.524-16.846-32.081-26.754-53.337-26.754h-20.008V183.775z M328.182,350.283l-0.058-22.115h-7.198
	c-25.549,0-50.369-10.5-68.284-29.737c0.776-1.147,14.946-23.754,14.946-23.754c12.525,16.842,32.082,26.752,53.338,26.752h7.128
	v-24.197l59.154,36.918L328.182,350.283z M327.992,234.768l0.062-24.197h-7.128c-23.098,0-44.194,11.693-56.436,31.279
	l-26.58,42.527c-17.274,27.637-47.393,43.847-79.11,43.847h-20.008v-26.739H158.8c23.097,0,44.194-11.693,56.436-31.279
	l26.58-42.525c17.273-27.638,47.392-43.849,79.11-43.849h7.198l0.058-22.113l59.026,36.133L327.992,234.768z"/>
</svg>
