<?xml version="1.0" encoding="utf-8"?>
<!-- Generator: Adobe Illustrator 16.0.0, SVG Export Plug-In . SVG Version: 6.00 Build 0)  -->
<!DOCTYPE svg PUBLIC "-//W3C//DTD SVG 1.1//EN" "http://www.w3.org/Graphics/SVG/1.1/DTD/svg11.dtd">
<svg version="1.1" id="Layer_1" xmlns="http://www.w3.org/2000/svg" xmlns:xlink="http://www.w3.org/1999/xlink" x="0px" y="0px"
	 width="100%" height="100%" preserveAspectRatio="none">
<rect y="623.436" fill-rule="evenodd" clip-rule="evenodd" fill="#003F5B" width="233.108" height="176.879"/>
<rect x="233.108" y="623.436" fill-rule="evenodd" clip-rule="evenodd" fill="#FFFFFF" width="220.546" height="176.879"/>
<rect x="453.654" y="623.436" fill-rule="evenodd" clip-rule="evenodd" fill="#13007E" width="277.769" height="176.879"/>
<rect x="732.822" y="623.436" fill-rule="evenodd" clip-rule="evenodd" fill="#C1C1C1" width="362.918" height="176.879"/>
<rect x="1097.141" y="623.436" fill-rule="evenodd" clip-rule="evenodd" width="182.859" height="176.879"/>
<rect y="-0.314" fill-rule="evenodd" clip-rule="evenodd" fill="#FFFFFF" width="182.858" height="538.632"/>
<rect x="182.858" y="-0.314" fill-rule="evenodd" clip-rule="evenodd" fill="#FFFB00" width="182.859" height="538.632"/>
<rect x="365.718" y="-0.314" fill-rule="evenodd" clip-rule="evenodd" fill="#00FDFF" width="182.859" height="538.632"/>
<rect x="548.577" y="-0.314" fill-rule="evenodd" clip-rule="evenodd" fill="#00F900" width="182.846" height="538.632"/>
<rect x="731.423" y="-0.314" fill-rule="evenodd" clip-rule="evenodd" fill="#FF43FF" width="182.86" height="538.632"/>
<rect x="914.283" y="-0.314" fill-rule="evenodd" clip-rule="evenodd" fill="#FF2300" width="182.857" height="538.632"/>
<rect x="1097.141" y="-0.314" fill-rule="evenodd" clip-rule="evenodd" fill="#0037FF" width="182.859" height="538.632"/>
<rect y="538.317" fill-rule="evenodd" clip-rule="evenodd" fill="#0000FE" width="182.858" height="85.118"/>
<rect x="182.858" y="538.317" fill-rule="evenodd" clip-rule="evenodd" width="182.859" height="85.118"/>
<rect x="365.718" y="538.317" fill-rule="evenodd" clip-rule="evenodd" fill="#FF00FE" width="182.859" height="85.118"/>
<rect x="548.577" y="538.317" fill-rule="evenodd" clip-rule="evenodd" fill="#FFFF01" width="182.846" height="85.118"/>
<rect x="731.423" y="538.317" fill-rule="evenodd" clip-rule="evenodd" fill="#01FFFF" width="182.86" height="85.118"/>
<rect x="914.283" y="538.317" fill-rule="evenodd" clip-rule="evenodd" width="182.857" height="85.118"/>
<rect x="1097.141" y="538.317" fill-rule="evenodd" clip-rule="evenodd" fill="#FFFFFF" width="182.859" height="85.118"/>
</svg>
